<?xml version="1.0" standalone="no"?>
<!DOCTYPE svg PUBLIC "-//W3C//DTD SVG 20010904//EN"
 "http://www.w3.org/TR/2001/REC-SVG-20010904/DTD/svg10.dtd">
<svg version="1.0" xmlns="http://www.w3.org/2000/svg"
 width="316.000000pt" height="327.000000pt" viewBox="0 0 316.000000 327.000000"
 preserveAspectRatio="xMidYMid meet">

<g transform="translate(0.000000,327.000000) scale(0.100000,-0.100000)"
fill="#000000" stroke="none">
<path d="M1717 2990 c-40 -12 -97 -58 -108 -87 -5 -14 -18 -38 -29 -53 -22
-31 -26 -92 -9 -137 14 -38 67 -92 107 -109 18 -8 37 -25 42 -39 5 -13 22 -31
37 -38 15 -8 37 -24 47 -36 11 -12 22 -21 26 -21 4 0 11 29 14 64 7 61 9 64
52 95 49 34 74 79 82 149 15 134 -129 251 -261 212z"/>
<path d="M1909 2383 c73 -93 97 -160 116 -318 32 -260 74 -564 85 -604 l11
-41 55 0 c85 0 161 31 258 105 19 14 19 18 3 137 -9 68 -19 157 -23 198 -13
149 -101 323 -206 413 -86 71 -242 147 -305 147 l-24 0 30 -37z"/>
<path d="M1122 1818 c-7 -7 -12 -39 -12 -74 0 -66 15 -94 50 -94 35 0 50 28
50 94 0 68 -10 86 -50 86 -14 0 -31 -5 -38 -12z"/>
<path d="M1672 1818 c-15 -15 -16 -122 -2 -149 13 -23 53 -25 74 -3 19 18 22
114 6 145 -12 22 -59 26 -78 7z"/>
<path d="M1310 1558 c-39 -64 -17 -153 46 -195 39 -25 125 -23 161 3 60 44 80
131 43 192 -15 25 -27 32 -50 32 -17 0 -39 -5 -50 -12 -15 -10 -26 -10 -53 0
-54 20 -75 15 -97 -20z"/>
<path d="M2779 1384 c-58 -36 -132 -54 -220 -54 l-46 0 -22 -52 c-45 -108
-101 -164 -190 -188 l-41 -11 20 -39 c19 -36 137 -164 185 -200 11 -8 44 -32
73 -53 53 -39 62 -60 42 -97 -14 -26 -136 -62 -320 -95 -262 -46 -248 -41
-263 -94 l-13 -46 56 -5 c43 -4 56 -9 58 -23 4 -18 -2 -18 -70 -12 -63 6 -76
4 -88 -10 -18 -22 -94 -55 -125 -55 -35 0 -111 35 -128 60 -10 15 -29 24 -53
27 -48 5 -57 13 -16 13 l31 0 -14 32 -13 33 -69 -3 c-39 -2 -75 -10 -84 -18
-8 -7 -45 -18 -82 -23 -38 -5 -74 -17 -83 -26 -11 -11 -30 -16 -58 -14 -34 2
-47 -3 -75 -28 -18 -17 -54 -37 -78 -44 -51 -14 -90 -5 -153 35 -34 22 -40 22
-200 15 -91 -4 -256 -14 -368 -23 -264 -22 -338 -46 -227 -74 378 -95 2317
-88 2614 9 29 10 31 13 18 26 -16 16 -90 27 -291 42 -70 6 -130 12 -133 15 -3
2 5 18 17 34 18 24 32 31 74 36 99 13 372 66 441 86 99 29 119 41 123 72 3 24
-7 34 -85 85 -86 57 -228 187 -271 250 l-22 31 53 16 c108 31 188 134 208 268
10 61 9 79 -2 104 -19 39 -44 39 -110 -2z"/>
</g>
</svg>
